<?xml version="1.0" standalone="no"?>
<!DOCTYPE svg PUBLIC "-//W3C//DTD SVG 20010904//EN"
 "http://www.w3.org/TR/2001/REC-SVG-20010904/DTD/svg10.dtd">
<svg version="1.0" xmlns="http://www.w3.org/2000/svg"
 width="128.000000pt" height="128.000000pt" viewBox="0 0 128.000000 128.000000"
 preserveAspectRatio="xMidYMid meet">

<g transform="translate(0.000000,128.000000) scale(0.100000,-0.100000)"
fill="#000000" stroke="none">
<path d="M530 1266 c-312 -66 -524 -320 -524 -626 0 -289 199 -542 484 -617
37 -9 102 -17 150 -17 289 0 542 199 617 484 9 37 17 102 17 150 0 287 -200
543 -479 615 -87 22 -190 26 -265 11z m220 -382 c0 -3 -14 -25 -30 -50 l-31
-44 -174 0 c-96 0 -176 4 -179 8 -3 5 6 27 20 50 l25 42 185 0 c101 0 184 -3
184 -6z m223 -217 c76 -114 137 -212 137 -217 0 -6 -24 -10 -54 -10 -53 0 -55
1 -83 45 l-28 45 -82 0 c-46 0 -83 3 -83 7 0 3 11 26 25 50 20 32 32 43 51 43
l24 0 -26 40 c-24 36 -28 39 -39 23 -6 -10 -44 -71 -85 -135 l-73 -118 -234 0
c-140 0 -233 4 -233 9 0 6 23 45 50 88 l50 78 -35 3 c-19 2 -35 7 -35 11 0 4
14 27 30 49 l30 42 163 0 c90 0 166 -3 170 -6 3 -3 -7 -26 -21 -50 l-27 -44
-75 0 c-75 0 -75 0 -97 -35 -13 -19 -23 -37 -23 -40 0 -3 51 -5 114 -5 l114 0
68 108 c37 59 88 138 112 176 24 38 47 65 51 60 4 -5 69 -103 144 -217z"/>
</g>
</svg>
